<?xml version="1.0" standalone="no"?>
<!DOCTYPE svg PUBLIC "-//W3C//DTD SVG 20010904//EN"
 "http://www.w3.org/TR/2001/REC-SVG-20010904/DTD/svg10.dtd">
<svg version="1.0" xmlns="http://www.w3.org/2000/svg"
 width="140.000000pt" height="140.000000pt" viewBox="0 0 140.000000 140.000000"
 preserveAspectRatio="xMidYMid meet">
<metadata>
Created by potrace 1.10, written by Peter Selinger 2001-2011
</metadata>
<g transform="translate(0.000000,140.000000) scale(0.100000,-0.100000)"
fill="#000000" stroke="none">
<path fill="#000000" d="M374 1040 c-45 -10 -94 -22 -109 -27 l-28 -9 0 -330 c0 -181 2 -329
4 -329 15 2 171 39 204 48 l40 12 3 95 c6 171 -9 560 -22 559 -6 -1 -48 -9
-92 -19z m68 -329 c2 -295 3 -291 -52 -291 -14 0 -41 -4 -60 -10 -19 -5 -38
-6 -43 -1 -5 5 -9 130 -10 279 -1 213 2 273 12 286 8 9 16 15 18 13 2 -2 27 1
56 8 39 10 55 10 64 1 10 -9 14 -81 15 -285z"/>
<path fill="#000000" d="M572 730 l-3 -330 23 -9 c13 -6 50 -14 83 -20 33 -6 77 -15 98 -20
28 -7 40 -6 43 2 2 7 3 156 2 332 l-3 319 -30 8 c-112 28 -196 48 -202 48 -5
0 -9 -148 -11 -330z m195 238 c11 -9 13 -63 11 -287 l-3 -276 -33 -1 c-19 -1
-52 5 -74 13 -21 7 -44 11 -50 7 -11 -7 -5 557 6 575 7 11 123 -14 143 -31z"/>
<path fill="#000000" d="M1020 1026 l-105 -22 -3 -332 c-2 -287 0 -332 12 -332 9 0 53 9 98
20 46 10 95 22 111 25 l27 5 0 330 c0 308 -1 330 -17 329 -10 -1 -65 -12 -123
-23z m88 -38 c9 -9 12 -86 12 -284 l0 -272 -32 -11 c-41 -12 -98 -25 -118 -25
-13 -1 -15 38 -18 278 -1 165 2 284 7 289 7 7 70 25 132 36 3 1 10 -4 17 -11z"/>
</g>
</svg>
